<?xml version="1.0" encoding="UTF-8"?>
<svg id="Layer_1" xmlns="http://www.w3.org/2000/svg" xmlns:xlink="http://www.w3.org/1999/xlink" version="1.1" viewBox="0 0 325.7 69.3">
  <!-- Generator: Adobe Illustrator 30.6.0, SVG Export Plug-In . SVG Version: 2.1.4 Build 109)  -->
  <defs>
    <style>
      .st0 {
        fill: none;
      }

      .st1 {
        fill: #57c6d7;
      }

      .st2 {
        fill: #ee2324;
      }

      .st3 {
        fill: #194379;
      }

      .st4 {
        fill: #1b2f58;
      }

      .st5 {
        clip-path: url(#clippath);
      }
    </style>
    <clipPath id="clippath">
      <rect class="st0" width="75" height="69"/>
    </clipPath>
  </defs>
  <path class="st4" d="M81,26V1.5h6.8l12.5,14.9h-3.2V1.5h8v24.5h-6.8l-12.5-14.9h3.2v14.9h-8ZM120.5,26v-3.4l-.6-.9v-6.4c0-.9-.3-1.6-.9-2.1-.6-.5-1.5-.7-2.8-.7s-1.7.1-2.6.4c-.9.3-1.6.6-2.3,1.1l-2.5-5.2c1.1-.7,2.5-1.2,4-1.6,1.6-.4,3.1-.6,4.6-.6,3.3,0,5.8.7,7.6,2.2,1.8,1.5,2.7,3.8,2.7,7v10.3h-7.4ZM115,26.3c-1.6,0-2.9-.3-3.9-.8-1.1-.5-1.8-1.2-2.4-2.1-.5-.9-.8-1.9-.8-3s.3-2.3.9-3.1c.6-.9,1.6-1.5,2.9-2,1.3-.4,3-.7,4.9-.7h4v3.8h-2.7c-.8,0-1.5.1-1.9.4-.4.3-.6.7-.6,1.2s.2.8.5,1.1c.4.3.8.4,1.4.4s1-.1,1.5-.4c.5-.3.8-.8,1-1.4l1,2.3c-.3,1.4-.9,2.5-1.9,3.2-1,.7-2.3,1-4,1ZM140.5,26.3c-2.6,0-4.7-.6-6.2-1.9-1.5-1.3-2.2-3.2-2.2-5.9V2.6h7.9v16c0,.6.2,1,.5,1.4.3.3.7.5,1.2.5.7,0,1.3-.2,1.8-.5l1.9,5.5c-.6.4-1.3.6-2.2.8-.8.2-1.7.2-2.7.2ZM129.5,12.6v-5.8h14.5v5.8h-14.5ZM155.3,26.3c-1.5,0-2.9-.3-4.1-.9-1.2-.6-2.2-1.6-2.9-2.9-.7-1.3-1.1-3-1.1-5.1V6.9h7.9v9.2c0,1.4.2,2.3.7,2.8.4.5,1,.8,1.8.8s.9-.1,1.3-.4c.4-.3.8-.7,1-1.2.3-.6.4-1.3.4-2.3V6.9h7.9v19.1h-7.5v-5.5l1.5,1.5c-.7,1.5-1.6,2.6-2.9,3.3-1.2.7-2.6,1-4,1ZM171.8,26V6.9h7.5v5.8l-1.2-1.6c.6-1.5,1.5-2.6,2.8-3.4,1.3-.7,2.8-1.1,4.6-1.1v7c-.3,0-.7,0-.9-.1-.3,0-.5,0-.8,0-1.2,0-2.2.3-2.9.9-.7.6-1.1,1.7-1.1,3.2v8.5h-7.9ZM198.1,26.3c-2.3,0-4.4-.4-6.1-1.3-1.7-.9-3.1-2-4-3.5-1-1.5-1.4-3.2-1.4-5.1s.5-3.7,1.4-5.1c1-1.5,2.3-2.7,3.9-3.5,1.7-.8,3.5-1.3,5.6-1.3s3.6.4,5.2,1.1c1.6.7,2.9,1.9,3.9,3.3,1,1.5,1.5,3.3,1.5,5.5s0,.6,0,.9c0,.3,0,.6,0,.9h-14.7v-3.8h10.5l-3,1c0-.7-.1-1.4-.4-1.9-.3-.5-.6-.9-1.1-1.2-.5-.3-1-.5-1.7-.5s-1.2.2-1.7.5c-.5.3-.8.7-1.1,1.2-.3.5-.4,1.1-.4,1.9v1.2c0,.8.2,1.5.5,2.1.3.6.8,1,1.4,1.3.6.3,1.3.4,2.2.4s1.6-.1,2.2-.3c.6-.2,1.2-.6,1.8-1.1l4.1,4.2c-.9,1-2.1,1.8-3.5,2.3-1.4.5-3,.8-4.9.8ZM233.8,26.6c-2,0-3.8-.3-5.5-.9-1.7-.6-3.1-1.5-4.3-2.7-1.2-1.1-2.2-2.5-2.8-4.1-.7-1.6-1-3.3-1-5.2s.3-3.6,1-5.2c.7-1.6,1.6-2.9,2.8-4.1,1.2-1.1,2.7-2,4.3-2.6,1.7-.6,3.5-.9,5.5-.9s4.5.4,6.4,1.3c1.9.8,3.4,2.1,4.6,3.6l-5.2,4.7c-.7-.9-1.5-1.6-2.4-2.1-.9-.5-1.8-.8-2.9-.8s-1.6.1-2.3.4c-.7.3-1.3.7-1.8,1.2-.5.5-.9,1.2-1.2,2-.3.7-.4,1.6-.4,2.5s.1,1.8.4,2.6c.3.7.7,1.4,1.2,1.9.5.5,1.1.9,1.8,1.2s1.5.4,2.3.4,2.1-.2,2.9-.7c.9-.5,1.7-1.2,2.4-2.1l5.2,4.7c-1.2,1.6-2.8,2.8-4.6,3.6-1.8.8-4,1.3-6.4,1.3ZM256.3,26.3c-2.2,0-4.1-.4-5.8-1.3-1.7-.9-3-2-3.9-3.5-1-1.5-1.4-3.2-1.4-5.1s.5-3.7,1.4-5.1c1-1.5,2.3-2.7,3.9-3.5,1.7-.8,3.6-1.3,5.8-1.3s4.1.4,5.8,1.3c1.7.8,3,2,3.9,3.5,1,1.5,1.4,3.2,1.4,5.1s-.5,3.7-1.4,5.1c-.9,1.5-2.2,2.7-3.9,3.5-1.7.8-3.6,1.3-5.8,1.3ZM256.3,20.2c.6,0,1.1-.1,1.6-.4.5-.3.8-.7,1.1-1.3.3-.6.4-1.3.4-2.1s-.1-1.5-.4-2.1c-.3-.6-.7-1-1.1-1.3-.5-.3-1-.4-1.6-.4s-1.1.1-1.6.4c-.5.3-.8.7-1.1,1.3-.3.5-.4,1.2-.4,2.1s.1,1.5.4,2.1c.3.6.7,1,1.1,1.3.5.3,1,.4,1.6.4ZM281,26v-3.4l-.6-.9v-6.4c0-.9-.3-1.6-.9-2.1-.6-.5-1.5-.7-2.8-.7s-1.7.1-2.6.4c-.9.3-1.6.6-2.3,1.1l-2.5-5.2c1.1-.7,2.5-1.2,4-1.6,1.6-.4,3.1-.6,4.6-.6,3.3,0,5.8.7,7.6,2.2,1.8,1.5,2.7,3.8,2.7,7v10.3h-7.4ZM275.6,26.3c-1.6,0-2.9-.3-3.9-.8-1-.5-1.8-1.2-2.4-2.1-.5-.9-.8-1.9-.8-3s.3-2.3.9-3.1,1.6-1.5,2.9-2c1.3-.4,3-.7,4.9-.7h4v3.8h-2.7c-.8,0-1.5.1-1.9.4-.4.3-.6.7-.6,1.2s.2.8.5,1.1c.3.3.8.4,1.4.4s1-.1,1.5-.4c.5-.3.8-.8,1-1.4l1,2.3c-.3,1.4-.9,2.5-1.9,3.2-1,.7-2.3,1-4,1ZM299.3,26.3c-1.6,0-3.2-.2-4.8-.5-1.6-.4-2.9-.8-3.9-1.4l2.2-5.2c.9.5,2,1,3.1,1.3,1.2.3,2.4.5,3.5.5s1.6,0,1.9-.2c.4-.2.5-.4.5-.7s-.2-.5-.6-.6c-.4-.1-.9-.2-1.6-.3-.7,0-1.4-.2-2.2-.2-.8-.1-1.6-.3-2.3-.5-.8-.2-1.5-.5-2.2-.9-.7-.4-1.2-1-1.6-1.7-.4-.7-.6-1.6-.6-2.7s.4-2.3,1.1-3.3c.7-1,1.8-1.8,3.3-2.3,1.5-.6,3.3-.9,5.4-.9s2.8.1,4.2.4c1.4.3,2.6.7,3.6,1.2l-2.2,5.2c-1-.5-1.9-.9-2.9-1.1-.9-.2-1.8-.3-2.6-.3s-1.7,0-2.1.3c-.3.2-.5.4-.5.6s.2.5.6.6c.4.1.9.2,1.6.3.7,0,1.4.2,2.1.3.8,0,1.6.3,2.3.5.8.2,1.5.5,2.2.9.7.4,1.2,1,1.6,1.7.4.7.6,1.6.6,2.7s-.4,2.2-1.1,3.2c-.7,1-1.8,1.8-3.3,2.4-1.5.6-3.3.9-5.5.9ZM320.8,26.3c-2.6,0-4.7-.6-6.2-1.9-1.5-1.3-2.2-3.2-2.2-5.9V2.6h7.9v16c0,.6.2,1,.5,1.4.3.3.7.5,1.2.5.7,0,1.3-.2,1.8-.5l1.9,5.5c-.6.4-1.3.6-2.2.8-.8.2-1.7.2-2.7.2ZM309.8,12.6v-5.8h14.5v5.8h-14.5ZM81,69v-24.5h8.3v24.5h-8.3ZM93,69v-19.1h7.5v5.6l-1.5-1.6c.7-1.4,1.7-2.5,3-3.3,1.3-.7,2.7-1.1,4.3-1.1s2.8.3,4,.9c1.2.6,2.1,1.5,2.8,2.8.7,1.3,1.1,2.9,1.1,4.9v10.9h-7.9v-9.6c0-1.2-.2-2-.6-2.5-.4-.5-1-.8-1.7-.8s-1,.1-1.5.4c-.4.2-.8.6-1.1,1.2-.3.6-.4,1.3-.4,2.3v9h-7.9ZM126.3,69.3c-1.7,0-3.2-.4-4.6-1.2-1.4-.8-2.5-2-3.4-3.4-.8-1.5-1.3-3.3-1.3-5.3s.4-3.8,1.3-5.3c.8-1.5,2-2.6,3.4-3.4,1.4-.8,3-1.2,4.6-1.2s3.1.4,4.1,1.1c1.1.7,1.9,1.8,2.4,3.3.5,1.4.8,3.3.8,5.6s-.2,4.2-.7,5.6c-.5,1.5-1.2,2.6-2.3,3.3-1,.7-2.5,1-4.2,1ZM128.2,63.2c.6,0,1.1-.1,1.6-.4.5-.3.8-.7,1.1-1.3.3-.6.4-1.3.4-2.1s-.1-1.5-.4-2.1c-.3-.6-.7-1-1.1-1.3-.5-.3-1-.4-1.6-.4s-1.1.1-1.6.4c-.5.3-.8.7-1.1,1.3-.3.5-.4,1.2-.4,2.1s.1,1.5.4,2.1c.3.6.7,1,1.1,1.3.5.3,1,.4,1.6.4ZM131.6,69v-9.6s-.4-7-.4-7v-9.4h7.9v26h-7.5ZM142.6,69v-19.1h7.9v19.1h-7.9ZM146.5,48.3c-1.4,0-2.6-.4-3.5-1.2s-1.3-1.7-1.3-2.9.4-2.1,1.3-2.9c.9-.8,2-1.2,3.5-1.2s2.6.4,3.5,1.1c.9.7,1.3,1.7,1.3,2.8s-.4,2.2-1.3,3c-.9.8-2,1.2-3.5,1.2ZM159.4,69l-7.7-19.1h8.1l5.8,15.5h-4.1l6.2-15.5h7.5l-7.7,19.1h-8.2ZM176.5,69v-19.1h7.9v19.1h-7.9ZM180.5,48.3c-1.4,0-2.6-.4-3.5-1.2-.9-.8-1.3-1.7-1.3-2.9s.4-2.1,1.3-2.9c.9-.8,2-1.2,3.5-1.2s2.6.4,3.5,1.1c.9.7,1.3,1.7,1.3,2.8s-.4,2.2-1.3,3c-.9.8-2,1.2-3.5,1.2ZM195.4,69.3c-1.6,0-3.2-.2-4.8-.5-1.6-.3-2.9-.8-3.9-1.4l2.2-5.2c.9.5,2,1,3.1,1.3,1.2.3,2.4.5,3.5.5s1.6,0,1.9-.2c.4-.2.5-.4.5-.7s-.2-.5-.6-.6c-.4-.1-.9-.2-1.6-.3-.7,0-1.4-.2-2.2-.2-.8-.1-1.6-.3-2.3-.5-.8-.2-1.5-.5-2.2-.9-.7-.4-1.2-1-1.6-1.7-.4-.7-.6-1.6-.6-2.7s.4-2.3,1.1-3.3c.7-1,1.8-1.8,3.3-2.3,1.5-.6,3.3-.9,5.4-.9s2.8.1,4.2.4c1.4.3,2.6.7,3.6,1.2l-2.2,5.2c-1-.5-1.9-.9-2.9-1.1-.9-.2-1.8-.3-2.6-.3s-1.7,0-2.1.3c-.3.2-.5.4-.5.6s.2.5.6.6c.4.1.9.2,1.6.3.7,0,1.4.2,2.1.3.8,0,1.6.3,2.3.5.8.2,1.5.5,2.2.9.7.4,1.2,1,1.6,1.7.4.7.6,1.6.6,2.7s-.4,2.2-1.1,3.2c-.7,1-1.8,1.8-3.3,2.4-1.5.6-3.3.9-5.5.9ZM207.7,69v-19.1h7.9v19.1h-7.9ZM211.7,48.3c-1.4,0-2.6-.4-3.5-1.2-.9-.8-1.3-1.7-1.3-2.9s.4-2.1,1.3-2.9c.9-.8,2-1.2,3.5-1.2s2.6.4,3.5,1.1c.9.7,1.3,1.7,1.3,2.8s-.4,2.2-1.3,3c-.9.8-2,1.2-3.5,1.2ZM231.9,69.3c-1.8,0-3.2-.3-4.2-1-1.1-.7-1.9-1.8-2.3-3.3-.5-1.5-.7-3.3-.7-5.6s.3-4.1.8-5.6c.5-1.5,1.3-2.6,2.4-3.3,1.1-.7,2.5-1.1,4.1-1.1s3.2.4,4.6,1.2,2.5,1.9,3.4,3.4c.8,1.5,1.3,3.2,1.3,5.3s-.4,3.8-1.3,5.3c-.8,1.5-2,2.6-3.4,3.4-1.4.8-2.9,1.2-4.6,1.2ZM219.1,69v-26h7.9v9.4l-.4,7v7s0,2.6,0,2.6h-7.5ZM230,63.2c.6,0,1.1-.1,1.6-.4.5-.3.8-.7,1.1-1.3.3-.6.4-1.3.4-2.1s-.1-1.5-.4-2.1c-.3-.6-.7-1-1.1-1.3-.5-.3-1-.4-1.6-.4s-1.1.1-1.6.4c-.5.3-.8.7-1.1,1.3-.3.5-.4,1.2-.4,2.1s.1,1.5.4,2.1c.3.6.7,1,1.1,1.3.5.3,1,.4,1.6.4ZM243.6,69v-26h7.9v26h-7.9ZM265.6,69.3c-2.3,0-4.4-.4-6.1-1.3-1.7-.9-3.1-2-4-3.5-1-1.5-1.4-3.2-1.4-5.1s.5-3.7,1.4-5.1c1-1.5,2.3-2.7,3.9-3.5,1.7-.8,3.5-1.3,5.6-1.3s3.6.4,5.2,1.1c1.6.7,2.9,1.9,3.9,3.3,1,1.5,1.5,3.3,1.5,5.5s0,.6,0,.9c0,.3,0,.6,0,.9h-14.7v-3.8h10.5l-3,1c0-.7-.1-1.4-.4-1.9-.3-.5-.6-.9-1.1-1.2-.5-.3-1-.5-1.7-.5s-1.2.2-1.7.5c-.5.3-.8.7-1.1,1.2-.3.5-.4,1.1-.4,1.9v1.2c0,.8.2,1.5.5,2.1.3.6.8,1,1.4,1.3.6.3,1.3.4,2.2.4s1.6-.1,2.2-.3c.6-.2,1.2-.6,1.8-1l4.1,4.2c-.9,1-2.1,1.8-3.5,2.3-1.4.5-3,.8-4.9.8Z"/>
  <g class="st5">
    <g>
      <path class="st2" d="M37.5,69h-16.5v-18.9c0-7.2,5.8-13.1,13-13.1h3.5v31.9h0Z"/>
      <path class="st1" d="M37.5,69h16.5v-18.9c0-7.2-5.8-13.1-13-13.1h-3.5v31.9h0Z"/>
      <path class="st2" d="M37.5,31.3c-8.6,0-15.5-7-15.5-15.6S28.9,0,37.5,0v31.3h0Z"/>
      <path class="st3" d="M74.7,69h-16.5v-18.9c0-7.2,5.8-13.1,13-13.1h3.5v31.9h0Z"/>
      <path class="st3" d="M74.7,31.3c-8.6,0-15.5-7-15.5-15.6S66.1,0,74.7,0v31.3h0Z"/>
      <path class="st1" d="M37.5,31.3c8.6,0,15.5-7,15.5-15.6S46,0,37.5,0v31.3h0Z"/>
      <path class="st1" d="M.3,69h16.5v-18.9c0-7.2-5.8-13.1-13-13.1H.3v31.9Z"/>
      <path class="st1" d="M.3,31.3c8.6,0,15.5-7,15.5-15.6S8.8,0,.3,0v31.3H.3Z"/>
    </g>
  </g>
</svg>