<svg width="337" height="86" viewBox="0 0 337 86" fill="none" xmlns="http://www.w3.org/2000/svg">
<path d="M80.995 34V9.5H87.785L100.245 24.41H97.095V9.5H105.145V34H98.355L85.895 19.09H89.045V34H80.995ZM120.465 34V30.605L119.905 29.695V23.255C119.905 22.3217 119.613 21.61 119.03 21.12C118.47 20.63 117.548 20.385 116.265 20.385C115.402 20.385 114.527 20.525 113.64 20.805C112.753 21.0617 111.995 21.4233 111.365 21.89L108.845 16.675C109.965 15.975 111.307 15.4383 112.87 15.065C114.433 14.6917 115.962 14.505 117.455 14.505C120.745 14.505 123.288 15.24 125.085 16.71C126.905 18.18 127.815 20.5133 127.815 23.71V34H120.465ZM115.04 34.35C113.477 34.35 112.17 34.0817 111.12 33.545C110.07 33.0083 109.277 32.2967 108.74 31.41C108.203 30.5 107.935 29.4967 107.935 28.4C107.935 27.1633 108.25 26.1133 108.88 25.25C109.51 24.3867 110.467 23.7333 111.75 23.29C113.057 22.8467 114.702 22.625 116.685 22.625H120.675V26.44H117.945C117.105 26.44 116.487 26.58 116.09 26.86C115.717 27.1167 115.53 27.5133 115.53 28.05C115.53 28.4933 115.693 28.8667 116.02 29.17C116.37 29.45 116.837 29.59 117.42 29.59C117.957 29.59 118.447 29.45 118.89 29.17C119.357 28.8667 119.695 28.4 119.905 27.77L120.92 30.115C120.617 31.5383 119.975 32.6 118.995 33.3C118.015 34 116.697 34.35 115.04 34.35ZM140.473 34.35C137.837 34.35 135.783 33.72 134.313 32.46C132.843 31.1767 132.108 29.2167 132.108 26.58V10.55H140.018V26.51C140.018 27.0933 140.17 27.5483 140.473 27.875C140.8 28.2017 141.197 28.365 141.663 28.365C142.34 28.365 142.935 28.19 143.448 27.84L145.338 33.335C144.732 33.685 143.997 33.9417 143.133 34.105C142.293 34.2683 141.407 34.35 140.473 34.35ZM129.483 20.63V14.855H143.938V20.63H129.483ZM155.312 34.35C153.795 34.35 152.419 34.0467 151.182 33.44C149.969 32.81 149.012 31.8417 148.312 30.535C147.612 29.205 147.262 27.5017 147.262 25.425V14.855H155.172V24.06C155.172 25.4133 155.394 26.3583 155.837 26.895C156.28 27.4317 156.887 27.7 157.657 27.7C158.124 27.7 158.555 27.5833 158.952 27.35C159.372 27.0933 159.71 26.685 159.967 26.125C160.224 25.5417 160.352 24.7833 160.352 23.85V14.855H168.262V34H160.737V28.47L162.242 29.975C161.565 31.4683 160.597 32.5767 159.337 33.3C158.1 34 156.759 34.35 155.312 34.35ZM171.771 34V14.855H179.296V20.63L178.071 18.985C178.654 17.4917 179.587 16.3717 180.871 15.625C182.154 14.8783 183.694 14.505 185.491 14.505V21.505C185.141 21.4583 184.826 21.4233 184.546 21.4C184.289 21.3767 184.021 21.365 183.741 21.365C182.551 21.365 181.571 21.68 180.801 22.31C180.054 22.9167 179.681 23.9783 179.681 25.495V34H171.771ZM198.132 34.35C195.798 34.35 193.757 33.9183 192.007 33.055C190.28 32.1917 188.938 31.0133 187.982 29.52C187.025 28.0033 186.547 26.3 186.547 24.41C186.547 22.4733 187.013 20.7583 187.947 19.265C188.903 17.7717 190.198 16.605 191.832 15.765C193.488 14.925 195.343 14.505 197.397 14.505C199.287 14.505 201.025 14.8783 202.612 15.625C204.222 16.3717 205.505 17.48 206.462 18.95C207.442 20.42 207.932 22.24 207.932 24.41C207.932 24.69 207.92 25.005 207.897 25.355C207.873 25.6817 207.85 25.985 207.827 26.265H193.092V22.45H203.627L200.652 23.465C200.652 22.7183 200.512 22.0883 200.232 21.575C199.975 21.0383 199.613 20.63 199.147 20.35C198.68 20.0467 198.12 19.895 197.467 19.895C196.813 19.895 196.242 20.0467 195.752 20.35C195.285 20.63 194.923 21.0383 194.667 21.575C194.41 22.0883 194.282 22.7183 194.282 23.465V24.655C194.282 25.4717 194.445 26.1717 194.772 26.755C195.098 27.3383 195.565 27.7817 196.172 28.085C196.778 28.365 197.513 28.505 198.377 28.505C199.263 28.505 199.987 28.3883 200.547 28.155C201.13 27.9217 201.737 27.5717 202.367 27.105L206.497 31.27C205.563 32.2733 204.408 33.0433 203.032 33.58C201.678 34.0933 200.045 34.35 198.132 34.35ZM233.836 34.56C231.876 34.56 230.056 34.2567 228.376 33.65C226.719 33.02 225.273 32.1333 224.036 30.99C222.823 29.8467 221.878 28.4933 221.201 26.93C220.524 25.3667 220.186 23.64 220.186 21.75C220.186 19.86 220.524 18.1333 221.201 16.57C221.878 15.0067 222.823 13.6533 224.036 12.51C225.273 11.3667 226.719 10.4917 228.376 9.885C230.056 9.255 231.876 8.94 233.836 8.94C236.239 8.94 238.363 9.36 240.206 10.2C242.073 11.04 243.613 12.2533 244.826 13.84L239.611 18.495C238.888 17.585 238.083 16.885 237.196 16.395C236.333 15.8817 235.353 15.625 234.256 15.625C233.393 15.625 232.611 15.765 231.911 16.045C231.211 16.325 230.604 16.7333 230.091 17.27C229.601 17.8067 229.216 18.46 228.936 19.23C228.656 19.9767 228.516 20.8167 228.516 21.75C228.516 22.6833 228.656 23.535 228.936 24.305C229.216 25.0517 229.601 25.6933 230.091 26.23C230.604 26.7667 231.211 27.175 231.911 27.455C232.611 27.735 233.393 27.875 234.256 27.875C235.353 27.875 236.333 27.63 237.196 27.14C238.083 26.6267 238.888 25.915 239.611 25.005L244.826 29.66C243.613 31.2233 242.073 32.4367 240.206 33.3C238.363 34.14 236.239 34.56 233.836 34.56ZM256.295 34.35C254.125 34.35 252.2 33.93 250.52 33.09C248.863 32.2267 247.556 31.0483 246.6 29.555C245.643 28.0617 245.165 26.3467 245.165 24.41C245.165 22.4733 245.643 20.7583 246.6 19.265C247.556 17.7717 248.863 16.605 250.52 15.765C252.2 14.925 254.125 14.505 256.295 14.505C258.465 14.505 260.39 14.925 262.07 15.765C263.75 16.605 265.056 17.7717 265.99 19.265C266.946 20.7583 267.425 22.4733 267.425 24.41C267.425 26.3467 266.946 28.0617 265.99 29.555C265.056 31.0483 263.75 32.2267 262.07 33.09C260.39 33.93 258.465 34.35 256.295 34.35ZM256.295 28.19C256.878 28.19 257.403 28.05 257.87 27.77C258.336 27.49 258.71 27.07 258.99 26.51C259.27 25.9267 259.41 25.2267 259.41 24.41C259.41 23.57 259.27 22.8817 258.99 22.345C258.71 21.785 258.336 21.365 257.87 21.085C257.403 20.805 256.878 20.665 256.295 20.665C255.711 20.665 255.186 20.805 254.72 21.085C254.253 21.365 253.88 21.785 253.6 22.345C253.32 22.8817 253.18 23.57 253.18 24.41C253.18 25.2267 253.32 25.9267 253.6 26.51C253.88 27.07 254.253 27.49 254.72 27.77C255.186 28.05 255.711 28.19 256.295 28.19ZM281.007 34V30.605L280.447 29.695V23.255C280.447 22.3217 280.155 21.61 279.572 21.12C279.012 20.63 278.09 20.385 276.807 20.385C275.944 20.385 275.069 20.525 274.182 20.805C273.295 21.0617 272.537 21.4233 271.907 21.89L269.387 16.675C270.507 15.975 271.849 15.4383 273.412 15.065C274.975 14.6917 276.504 14.505 277.997 14.505C281.287 14.505 283.83 15.24 285.627 16.71C287.447 18.18 288.357 20.5133 288.357 23.71V34H281.007ZM275.582 34.35C274.019 34.35 272.712 34.0817 271.662 33.545C270.612 33.0083 269.819 32.2967 269.282 31.41C268.745 30.5 268.477 29.4967 268.477 28.4C268.477 27.1633 268.792 26.1133 269.422 25.25C270.052 24.3867 271.009 23.7333 272.292 23.29C273.599 22.8467 275.244 22.625 277.227 22.625H281.217V26.44H278.487C277.647 26.44 277.029 26.58 276.632 26.86C276.259 27.1167 276.072 27.5133 276.072 28.05C276.072 28.4933 276.235 28.8667 276.562 29.17C276.912 29.45 277.379 29.59 277.962 29.59C278.499 29.59 278.989 29.45 279.432 29.17C279.899 28.8667 280.237 28.4 280.447 27.77L281.462 30.115C281.159 31.5383 280.517 32.6 279.537 33.3C278.557 34 277.239 34.35 275.582 34.35ZM299.265 34.35C297.632 34.35 296.022 34.175 294.435 33.825C292.849 33.475 291.565 33.02 290.585 32.46L292.755 27.245C293.665 27.7817 294.715 28.2017 295.905 28.505C297.119 28.8083 298.297 28.96 299.44 28.96C300.397 28.96 301.039 28.8783 301.365 28.715C301.715 28.5517 301.89 28.33 301.89 28.05C301.89 27.77 301.692 27.5717 301.295 27.455C300.899 27.315 300.374 27.21 299.72 27.14C299.067 27.07 298.344 26.9883 297.55 26.895C296.78 26.7783 295.999 26.615 295.205 26.405C294.412 26.195 293.689 25.88 293.035 25.46C292.382 25.04 291.857 24.48 291.46 23.78C291.064 23.0567 290.865 22.1467 290.865 21.05C290.865 19.8367 291.227 18.74 291.95 17.76C292.697 16.78 293.794 15.9983 295.24 15.415C296.71 14.8083 298.519 14.505 300.665 14.505C302.065 14.505 303.465 14.6333 304.865 14.89C306.265 15.1467 307.467 15.5433 308.47 16.08L306.3 21.295C305.32 20.7583 304.352 20.3967 303.395 20.21C302.462 20 301.587 19.895 300.77 19.895C299.767 19.895 299.079 19.9883 298.705 20.175C298.355 20.3617 298.18 20.5717 298.18 20.805C298.18 21.085 298.379 21.295 298.775 21.435C299.172 21.575 299.697 21.68 300.35 21.75C301.004 21.82 301.715 21.9133 302.485 22.03C303.279 22.1233 304.06 22.2867 304.83 22.52C305.624 22.73 306.347 23.045 307 23.465C307.654 23.885 308.179 24.4567 308.575 25.18C308.972 25.88 309.17 26.7783 309.17 27.875C309.17 29.0183 308.809 30.0917 308.085 31.095C307.362 32.075 306.265 32.8683 304.795 33.475C303.325 34.0583 301.482 34.35 299.265 34.35ZM320.805 34.35C318.169 34.35 316.115 33.72 314.645 32.46C313.175 31.1767 312.44 29.2167 312.44 26.58V10.55H320.35V26.51C320.35 27.0933 320.502 27.5483 320.805 27.875C321.132 28.2017 321.529 28.365 321.995 28.365C322.672 28.365 323.267 28.19 323.78 27.84L325.67 33.335C325.064 33.685 324.329 33.9417 323.465 34.105C322.625 34.2683 321.739 34.35 320.805 34.35ZM309.815 20.63V14.855H324.27V20.63H309.815ZM80.995 77V52.5H89.255V77H80.995ZM92.9863 77V57.855H100.511V63.455L99.0063 61.845C99.753 60.3983 100.756 59.3133 102.016 58.59C103.3 57.8667 104.723 57.505 106.286 57.505C107.756 57.505 109.086 57.8083 110.276 58.415C111.466 58.9983 112.4 59.92 113.076 61.18C113.776 62.44 114.126 64.0733 114.126 66.08V77H106.216V67.445C106.216 66.255 106.006 65.415 105.586 64.925C105.166 64.4117 104.595 64.155 103.871 64.155C103.335 64.155 102.833 64.2833 102.366 64.54C101.923 64.7733 101.561 65.17 101.281 65.73C101.025 66.29 100.896 67.0483 100.896 68.005V77H92.9863ZM126.303 77.35C124.647 77.35 123.107 76.9533 121.683 76.16C120.283 75.3433 119.163 74.2 118.323 72.73C117.483 71.2367 117.063 69.4633 117.063 67.41C117.063 65.3567 117.483 63.595 118.323 62.125C119.163 60.6317 120.283 59.4883 121.683 58.695C123.107 57.9017 124.647 57.505 126.303 57.505C127.983 57.505 129.36 57.8667 130.433 58.59C131.507 59.29 132.3 60.375 132.813 61.845C133.327 63.2917 133.583 65.1467 133.583 67.41C133.583 69.6967 133.338 71.575 132.848 73.045C132.382 74.515 131.612 75.6 130.538 76.3C129.488 77 128.077 77.35 126.303 77.35ZM128.193 71.19C128.777 71.19 129.302 71.05 129.768 70.77C130.235 70.49 130.608 70.07 130.888 69.51C131.168 68.9267 131.308 68.2267 131.308 67.41C131.308 66.57 131.168 65.8817 130.888 65.345C130.608 64.785 130.235 64.365 129.768 64.085C129.302 63.805 128.777 63.665 128.193 63.665C127.61 63.665 127.085 63.805 126.618 64.085C126.152 64.365 125.778 64.785 125.498 65.345C125.218 65.8817 125.078 66.57 125.078 67.41C125.078 68.2267 125.218 68.9267 125.498 69.51C125.778 70.07 126.152 70.49 126.618 70.77C127.085 71.05 127.61 71.19 128.193 71.19ZM131.553 77V74.41L131.518 67.41L131.168 60.41V51.03H139.078V77H131.553ZM142.581 77V57.855H150.491V77H142.581ZM146.536 56.315C145.089 56.315 143.934 55.93 143.071 55.16C142.208 54.39 141.776 53.4333 141.776 52.29C141.776 51.1467 142.208 50.19 143.071 49.42C143.934 48.65 145.089 48.265 146.536 48.265C147.983 48.265 149.138 48.6267 150.001 49.35C150.864 50.0733 151.296 51.0067 151.296 52.15C151.296 53.3633 150.864 54.3667 150.001 55.16C149.138 55.93 147.983 56.315 146.536 56.315ZM159.422 77L151.722 57.855H159.842L165.687 73.395H161.592L167.822 57.855H175.312L167.612 77H159.422ZM176.521 77V57.855H184.431V77H176.521ZM180.476 56.315C179.03 56.315 177.875 55.93 177.011 55.16C176.148 54.39 175.716 53.4333 175.716 52.29C175.716 51.1467 176.148 50.19 177.011 49.42C177.875 48.65 179.03 48.265 180.476 48.265C181.923 48.265 183.078 48.6267 183.941 49.35C184.805 50.0733 185.236 51.0067 185.236 52.15C185.236 53.3633 184.805 54.3667 183.941 55.16C183.078 55.93 181.923 56.315 180.476 56.315ZM195.427 77.35C193.794 77.35 192.184 77.175 190.598 76.825C189.011 76.475 187.728 76.02 186.748 75.46L188.918 70.245C189.828 70.7817 190.878 71.2017 192.068 71.505C193.281 71.8083 194.459 71.96 195.603 71.96C196.559 71.96 197.201 71.8783 197.528 71.715C197.878 71.5517 198.053 71.33 198.053 71.05C198.053 70.77 197.854 70.5717 197.458 70.455C197.061 70.315 196.536 70.21 195.883 70.14C195.229 70.07 194.506 69.9883 193.713 69.895C192.943 69.7783 192.161 69.615 191.368 69.405C190.574 69.195 189.851 68.88 189.198 68.46C188.544 68.04 188.019 67.48 187.623 66.78C187.226 66.0567 187.028 65.1467 187.028 64.05C187.028 62.8367 187.389 61.74 188.113 60.76C188.859 59.78 189.956 58.9983 191.403 58.415C192.873 57.8083 194.681 57.505 196.828 57.505C198.228 57.505 199.628 57.6333 201.028 57.89C202.428 58.1467 203.629 58.5433 204.633 59.08L202.463 64.295C201.483 63.7583 200.514 63.3967 199.558 63.21C198.624 63 197.749 62.895 196.933 62.895C195.929 62.895 195.241 62.9883 194.868 63.175C194.518 63.3617 194.343 63.5717 194.343 63.805C194.343 64.085 194.541 64.295 194.938 64.435C195.334 64.575 195.859 64.68 196.513 64.75C197.166 64.82 197.878 64.9133 198.648 65.03C199.441 65.1233 200.223 65.2867 200.993 65.52C201.786 65.73 202.509 66.045 203.163 66.465C203.816 66.885 204.341 67.4567 204.738 68.18C205.134 68.88 205.333 69.7783 205.333 70.875C205.333 72.0183 204.971 73.0917 204.248 74.095C203.524 75.075 202.428 75.8683 200.958 76.475C199.488 77.0583 197.644 77.35 195.427 77.35ZM207.728 77V57.855H215.638V77H207.728ZM211.683 56.315C210.236 56.315 209.081 55.93 208.218 55.16C207.354 54.39 206.923 53.4333 206.923 52.29C206.923 51.1467 207.354 50.19 208.218 49.42C209.081 48.65 210.236 48.265 211.683 48.265C213.129 48.265 214.284 48.6267 215.148 49.35C216.011 50.0733 216.443 51.0067 216.443 52.15C216.443 53.3633 216.011 54.3667 215.148 55.16C214.284 55.93 213.129 56.315 211.683 56.315ZM231.919 77.35C230.169 77.35 228.757 77 227.684 76.3C226.61 75.6 225.829 74.515 225.339 73.045C224.872 71.575 224.639 69.6967 224.639 67.41C224.639 65.1467 224.895 63.2917 225.409 61.845C225.922 60.375 226.715 59.29 227.789 58.59C228.885 57.8667 230.262 57.505 231.919 57.505C233.599 57.505 235.139 57.9017 236.539 58.695C237.939 59.4883 239.059 60.6317 239.899 62.125C240.739 63.595 241.159 65.3567 241.159 67.41C241.159 69.4633 240.739 71.2367 239.899 72.73C239.059 74.2 237.939 75.3433 236.539 76.16C235.139 76.9533 233.599 77.35 231.919 77.35ZM219.144 77V51.03H227.054V60.41L226.704 67.41L226.669 74.41V77H219.144ZM230.029 71.19C230.612 71.19 231.137 71.05 231.604 70.77C232.07 70.49 232.444 70.07 232.724 69.51C233.004 68.9267 233.144 68.2267 233.144 67.41C233.144 66.57 233.004 65.8817 232.724 65.345C232.444 64.785 232.07 64.365 231.604 64.085C231.137 63.805 230.612 63.665 230.029 63.665C229.445 63.665 228.92 63.805 228.454 64.085C227.987 64.365 227.614 64.785 227.334 65.345C227.054 65.8817 226.914 66.57 226.914 67.41C226.914 68.2267 227.054 68.9267 227.334 69.51C227.614 70.07 227.987 70.49 228.454 70.77C228.92 71.05 229.445 71.19 230.029 71.19ZM243.65 77V51.03H251.56V77H243.65ZM265.636 77.35C263.303 77.35 261.261 76.9183 259.511 76.055C257.785 75.1917 256.443 74.0133 255.486 72.52C254.53 71.0033 254.051 69.3 254.051 67.41C254.051 65.4733 254.518 63.7583 255.451 62.265C256.408 60.7717 257.703 59.605 259.336 58.765C260.993 57.925 262.848 57.505 264.901 57.505C266.791 57.505 268.53 57.8783 270.116 58.625C271.726 59.3717 273.01 60.48 273.966 61.95C274.946 63.42 275.436 65.24 275.436 67.41C275.436 67.69 275.425 68.005 275.401 68.355C275.378 68.6817 275.355 68.985 275.331 69.265H260.596V65.45H271.131L268.156 66.465C268.156 65.7183 268.016 65.0883 267.736 64.575C267.48 64.0383 267.118 63.63 266.651 63.35C266.185 63.0467 265.625 62.895 264.971 62.895C264.318 62.895 263.746 63.0467 263.256 63.35C262.79 63.63 262.428 64.0383 262.171 64.575C261.915 65.0883 261.786 65.7183 261.786 66.465V67.655C261.786 68.4717 261.95 69.1717 262.276 69.755C262.603 70.3383 263.07 70.7817 263.676 71.085C264.283 71.365 265.018 71.505 265.881 71.505C266.768 71.505 267.491 71.3883 268.051 71.155C268.635 70.9217 269.241 70.5717 269.871 70.105L274.001 74.27C273.068 75.2733 271.913 76.0433 270.536 76.58C269.183 77.0933 267.55 77.35 265.636 77.35Z" fill="#FFFBEF"/>
<g clip-path="url(#clip0_5_125)">
<path d="M37.4951 77H21.0191V58.1394C21.0191 50.9598 26.8491 45.0726 33.9806 45.0726H37.5049V77H37.4951Z" fill="#EE2324"/>
<path d="M37.5 77H53.976V58.1394C53.976 50.9598 48.146 45.0726 41.0146 45.0726H37.4902V77H37.5Z" fill="#57C6D7"/>
<path d="M37.4951 39.264C28.9354 39.264 21.9891 32.2613 21.9891 23.632C21.9891 15.0027 28.9305 8 37.4951 8V39.2738V39.264Z" fill="#EE2324"/>
<path d="M74.7026 77H58.2266V58.1394C58.2266 50.9598 64.0566 45.0726 71.1881 45.0726H74.7124V77H74.7026Z" fill="#194379"/>
<path d="M74.6978 39.264C66.1381 39.264 59.1918 32.2613 59.1918 23.632C59.1918 15.0027 66.1381 8 74.6978 8V39.2738V39.264Z" fill="#194379"/>
<path d="M37.4902 39.264C46.05 39.264 52.9962 32.2613 52.9962 23.632C52.9962 15.0027 46.05 8 37.4902 8V39.2738V39.264Z" fill="#57C6D7"/>
<path d="M0.287598 77H16.7636V58.1394C16.7636 50.9598 10.9336 45.0726 3.80216 45.0726H0.287598V77Z" fill="#57C6D7"/>
<path d="M0.287598 39.264C8.84733 39.264 15.7936 32.2613 15.7936 23.632C15.7936 15.0027 8.84733 8 0.287598 8V39.2738V39.264Z" fill="#57C6D7"/>
</g>
<defs>
<clipPath id="clip0_5_125">
<rect width="75" height="69" fill="white" transform="translate(0 8)"/>
</clipPath>
</defs>
</svg>
