<?xml version="1.0" encoding="UTF-8"?>
<svg id="Layer_2" data-name="Layer 2" xmlns="http://www.w3.org/2000/svg" viewBox="0 0 153.86 140.41">
  <defs>
    <style>
      .cls-1 {
        fill: #57c6d7;
      }

      .cls-2 {
        fill: #ee2324;
      }

      .cls-3 {
        fill: #194379;
      }
    </style>
  </defs>
  <path class="cls-2" d="M76.92,140.41h-33.8v-38.38c0-14.61,11.96-26.59,26.59-26.59h7.23v64.97h-.02Z"/>
  <path class="cls-1" d="M76.93,140.41h33.8v-38.38c0-14.61-11.96-26.59-26.59-26.59h-7.23v64.97h.02Z"/>
  <path class="cls-2" d="M76.92,63.62c-17.56,0-31.81-14.25-31.81-31.81S59.35,0,76.92,0v63.64-.02Z"/>
  <path class="cls-3" d="M153.25,140.41h-33.8v-38.38c0-14.61,11.96-26.59,26.59-26.59h7.23v64.97h-.02Z"/>
  <path class="cls-3" d="M153.24,63.62c-17.56,0-31.81-14.25-31.81-31.81S135.68,0,153.24,0v63.64-.02Z"/>
  <path class="cls-1" d="M76.91,63.62c17.56,0,31.81-14.25,31.81-31.81S94.47,0,76.91,0v63.64-.02Z"/>
  <path class="cls-1" d="M.59,140.41h33.8v-38.38c0-14.61-11.96-26.59-26.59-26.59H.59v64.97Z"/>
  <path class="cls-1" d="M.59,63.62c17.56,0,31.81-14.25,31.81-31.81S18.15,0,.59,0v63.64-.02Z"/>
</svg>